<svg width="10" height="8" viewBox="0 0 10 8" fill="none" xmlns="http://www.w3.org/2000/svg">
  <rect x="9.1" y="4.1" width="1.1" height="1.1" transform="rotate(180 9.1 4.1)" fill="currentColor"/>
  <rect x="8.1" y="5.1" width="1.1" height="1.1" transform="rotate(180 8.1 5.1)" fill="currentColor"/>
  <rect x="7.1" y="5.1" width="1.1" height="1.1" transform="rotate(180 7.1 5.1)" fill="currentColor"/>
  <rect x="7.1" y="6.1" width="1.1" height="1.1" transform="rotate(180 7.1 6.1)" fill="currentColor"/>
  <rect x="6.1" y="7.1" width="1.1" height="1.1" transform="rotate(180 6.1 7.1)" fill="currentColor"/>
  <rect x="6.1" y="6.1" width="1.1" height="1.1" transform="rotate(180 6.1 6.1)" fill="currentColor"/>
  <rect x="6.1" y="5.1" width="1.1" height="1.1" transform="rotate(180 6.1 5.1)" fill="currentColor"/>
  <rect x="6.1" y="4.1" width="1.1" height="1.1" transform="rotate(180 6.1 4.1)" fill="currentColor"/>
  <rect x="5.1" y="4.1" width="1.1" height="1.1" transform="rotate(180 5.1 4.1)" fill="currentColor"/>
  <rect x="4.1" y="4.1" width="1.1" height="1.1" transform="rotate(180 4.1 4.1)" fill="currentColor"/>
  <rect x="3.1" y="4.1" width="1.1" height="1.1" transform="rotate(180 3.1 4.1)" fill="currentColor"/>
  <rect x="2.1" y="4.1" width="1.1" height="1.1" transform="rotate(180 2.1 4.1)" fill="currentColor"/>
  <rect x="1.1" y="4.1" width="1.1" height="1.1" transform="rotate(180 1.1 4.1)" fill="currentColor"/>
  <rect x="6.1" y="3.1" width="1.1" height="1.1" transform="rotate(180 6.1 3.1)" fill="currentColor"/>
  <rect x="6.1" y="2.1" width="1.1" height="1.1" transform="rotate(180 6.1 2.1)" fill="currentColor"/>
  <rect x="6.1" y="1.1" width="1.1" height="1.1" transform="rotate(180 6.1 1.1)" fill="currentColor"/>
  <rect x="8.1" y="4.1" width="1.1" height="1.1" transform="rotate(180 8.1 4.1)" fill="currentColor"/>
  <rect x="7.1" y="4.1" width="1.1" height="1.1" transform="rotate(180 7.1 4.1)" fill="currentColor"/>
  <rect x="8.1" y="3.1" width="1.1" height="1.1" transform="rotate(180 8.1 3.1)" fill="currentColor"/>
  <rect x="7.1" y="3.1" width="1.1" height="1.1" transform="rotate(180 7.1 3.1)" fill="currentColor"/>
  <rect x="7.1" y="2.1" width="1.1" height="1.1" transform="rotate(180 7.1 2.1)" fill="currentColor"/>
</svg>
