<svg width="11" height="9" viewBox="0 0 11 9" fill="none" xmlns="http://www.w3.org/2000/svg">
  <rect y="4" width="1.1" height="1.1" fill="currentColor"/>
  <rect x="1" y="3" width="1.1" height="1.1" fill="currentColor"/>
  <rect x="2" y="3" width="1.1" height="1.1" fill="currentColor"/>
  <rect x="2" y="2" width="1.1" height="1.1" fill="currentColor"/>
  <rect x="3" y="1" width="1.1" height="1.1" fill="currentColor"/>
  <rect x="3" y="2" width="1.1" height="1.1" fill="currentColor"/>
  <rect x="3" y="3" width="1.1" height="1.1" fill="currentColor"/>
  <rect x="3" y="4" width="1.1" height="1.1" fill="currentColor"/>
  <rect x="4" y="4" width="1.1" height="1.1" fill="currentColor"/>
  <rect x="5" y="4" width="1.1" height="1.1" fill="currentColor"/>
  <rect x="6" y="4" width="1.1" height="1.1" fill="currentColor"/>
  <rect x="7" y="4" width="1.1" height="1.1" fill="currentColor"/>
  <rect x="8" y="4" width="1.1" height="1.1" fill="currentColor"/>
  <rect x="9" y="3" width="1.1" height="1.1" fill="currentColor"/>
  <rect x="9" y="2" width="1.1" height="1.1" fill="currentColor"/>
  <rect x="9" y="1" width="1.1" height="1.1" fill="currentColor"/>
  <rect x="9" width="1.1" height="1.1" fill="currentColor"/>
  <rect x="3" y="5" width="1.1" height="1.1" fill="currentColor"/>
  <rect x="3" y="6" width="1.1" height="1.1" fill="currentColor"/>
  <rect x="3" y="7" width="1.1" height="1.1" fill="currentColor"/>
  <rect x="1" y="4" width="1.1" height="1.1" fill="currentColor"/>
  <rect x="2" y="4" width="1.1" height="1.1" fill="currentColor"/>
  <rect x="1" y="5" width="1.1" height="1.1" fill="currentColor"/>
  <rect x="2" y="5" width="1.1" height="1.1" fill="currentColor"/>
  <rect x="2" y="6" width="1.1" height="1.1" fill="currentColor"/>
</svg>
