<svg width="10" height="7" viewBox="0 0 10 7" fill="none" xmlns="http://www.w3.org/2000/svg">
  <rect x="4" y="5" width="1.1" height="1.1" fill="currentColor"/>
  <rect x="5" y="4" width="1.1" height="1.1" fill="currentColor"/>
  <rect x="6" y="3" width="1.1" height="1.1" fill="currentColor"/>
  <rect x="7" y="2" width="1.1" height="1.1" fill="currentColor"/>
  <rect x="8" y="1" width="1.1" height="1.1" fill="currentColor"/>
  <rect x="8" width="1.1" height="1.1" fill="currentColor"/>
  <rect x="3" y="4" width="1.1" height="1.1" fill="currentColor"/>
  <rect x="2" y="3" width="1.1" height="1.1" fill="currentColor"/>
  <rect x="1" y="2" width="1.1" height="1.1" fill="currentColor"/>
  <rect y="1" width="1.1" height="1.1" fill="currentColor"/>
  <rect width="1.1" height="1.1" fill="currentColor"/>
  <rect x="1" y="1" width="1.1" height="1.1" fill="currentColor"/>
  <rect x="2" y="2" width="1.1" height="1.1" fill="currentColor"/>
  <rect x="3" y="3" width="1.1" height="1.1" fill="currentColor"/>
  <rect x="4" y="4" width="1.1" height="1.1" fill="currentColor"/>
  <rect x="5" y="3" width="1.1" height="1.1" fill="currentColor"/>
  <rect x="6" y="2" width="1.1" height="1.1" fill="currentColor"/>
  <rect x="7" y="1" width="1.1" height="1.1" fill="currentColor"/>
</svg>
