<svg width="7" height="6" viewBox="0 0 7 6" fill="none" xmlns="http://www.w3.org/2000/svg">
  <rect width="1.1" height="1.1" transform="matrix(-1 0 0 1 6.1 4)" fill="currentColor"/>
  <rect width="1.1" height="1.1" transform="matrix(-1 0 0 1 5.1 4)" fill="currentColor"/>
  <rect width="1.1" height="1.1" transform="matrix(-1 0 0 1 4.1 4)" fill="currentColor"/>
  <rect width="1.1" height="1.1" transform="matrix(-1 0 0 1 3.1 4)" fill="currentColor"/>
  <rect width="1.1" height="1.1" transform="matrix(-1 0 0 1 2.1 4)" fill="currentColor"/>
  <rect width="1.1" height="1.1" transform="matrix(-1 0 0 1 1.1 3)" fill="currentColor"/>
  <rect width="1.1" height="1.1" transform="matrix(-1 0 0 1 1.1 2)" fill="currentColor"/>
  <rect width="1.1" height="1.1" transform="matrix(-1 0 0 1 1.1 1)" fill="currentColor"/>
  <rect width="1.1" height="1.1" transform="matrix(-1 0 0 1 1.1 0)" fill="currentColor"/>
</svg>
