<svg width="14" height="14" viewBox="0 0 14 14" fill="none" xmlns="http://www.w3.org/2000/svg">
<rect x="3.09961" y="11.101" width="1.1" height="1.1" transform="rotate(180 3.09961 11.101)" fill="currentColor"/>
<rect x="3.09961" y="12.1" width="1.1" height="1.1" transform="rotate(180 3.09961 12.1)" fill="currentColor"/>
<rect x="3.09961" y="10.1" width="1.1" height="1.1" transform="rotate(180 3.09961 10.1)" fill="currentColor"/>
<rect x="3.09961" y="4.20093" width="1.1" height="1.1" transform="rotate(180 3.09961 4.20093)" fill="currentColor"/>
<rect x="3.09961" y="3.09998" width="1.1" height="1.1" transform="rotate(180 3.09961 3.09998)" fill="currentColor"/>
<rect x="3.09961" y="5.3009" width="1.1" height="1.1" transform="rotate(180 3.09961 5.3009)" fill="currentColor"/>
<rect x="12.0996" y="4.099" width="1.1" height="1.1" transform="rotate(180 12.0996 4.099)" fill="currentColor"/>
<rect x="11.0996" y="4.099" width="1.1" height="1.1" transform="rotate(180 11.0996 4.099)" fill="currentColor"/>
<rect x="12.0996" y="5.09998" width="1.1" height="1.1" transform="rotate(180 12.0996 5.09998)" fill="currentColor"/>
<rect x="12.0996" y="11.1019" width="1.1" height="1.1" transform="rotate(180 12.0996 11.1019)" fill="currentColor"/>
<rect x="12.0996" y="12.1" width="1.1" height="1.1" transform="rotate(180 12.0996 12.1)" fill="currentColor"/>
<rect x="12.0996" y="10.1" width="1.1" height="1.1" transform="rotate(180 12.0996 10.1)" fill="currentColor"/>
<rect x="4.19922" y="3.10095" width="1.1" height="1.1" transform="rotate(180 4.19922 3.10095)" fill="currentColor"/>
<rect x="4.19922" y="4.20093" width="1.1" height="1.1" transform="rotate(180 4.19922 4.20093)" fill="currentColor"/>
<rect x="5.2998" y="3.10095" width="1.1" height="1.1" transform="rotate(180 5.2998 3.10095)" fill="currentColor"/>
<rect x="4.09961" y="12.101" width="1.1" height="1.1" transform="rotate(180 4.09961 12.101)" fill="currentColor"/>
<rect x="4.09961" y="11.1" width="1.1" height="1.1" transform="rotate(180 4.09961 11.1)" fill="currentColor"/>
<rect x="5.09961" y="12.101" width="1.1" height="1.1" transform="rotate(180 5.09961 12.101)" fill="currentColor"/>
<rect x="11.0996" y="3.09998" width="1.1" height="1.1" transform="rotate(180 11.0996 3.09998)" fill="currentColor"/>
<rect x="12.0996" y="3.09998" width="1.1" height="1.1" transform="rotate(180 12.0996 3.09998)" fill="currentColor"/>
<rect x="10.0996" y="3.09998" width="1.1" height="1.1" transform="rotate(180 10.0996 3.09998)" fill="currentColor"/>
<rect x="11.0996" y="12.1019" width="1.1" height="1.1" transform="rotate(180 11.0996 12.1019)" fill="currentColor"/>
<rect x="11.0996" y="11.1" width="1.1" height="1.1" transform="rotate(180 11.0996 11.1)" fill="currentColor"/>
<rect x="10.0996" y="12.1019" width="1.1" height="1.1" transform="rotate(180 10.0996 12.1019)" fill="currentColor"/>
</svg>
