<svg width="166" height="24" viewBox="0 0 166 24" fill="none" xmlns="http://www.w3.org/2000/svg">
  <path d="M165.741 11.5185C165.891 10.8426 165.554 10.3278 164.965 10.3278H159.426C158.837 10.3278 158.274 10.8444 158.124 11.5185L156.645 18.8667C156.347 20.0981 155.395 21.0519 154.46 21.0519C153.525 21.0519 152.953 20.0593 153.185 18.787L155.343 8.14259H163.238C163.791 8.14259 164.389 7.58704 164.539 6.95185L164.728 5.99815C164.878 5.32222 164.473 4.80741 163.917 4.80741H156.023L156.55 2.30556C156.665 1.62963 156.328 1.11296 155.74 1.11296H149.506C148.917 1.11296 148.354 1.62963 148.237 2.30556L144.523 20.6556C144.148 22.4037 145.575 23.8333 147.654 23.8333H159.496C161.573 23.8333 163.538 22.4037 163.914 20.6556L165.735 11.5204L165.741 11.5185ZM143.015 15.887C143.353 14.1389 141.978 12.7093 139.928 12.7093H135.762L136.81 11.3593C138.206 9.61111 139.173 9.01667 140.3 9.01667H143.374C143.955 9.01667 144.511 8.5 144.623 7.82593L144.997 5.95926C145.146 5.32407 144.814 4.76852 144.233 4.76852H138.599C138.19 4.76852 137.775 5.0463 137.529 5.44445L132.826 12.713H132.041L134.359 1.19444C134.474 0.518519 134.141 0.0037037 133.559 0.0037037H127.412C126.831 0.0037037 126.276 0.52037 126.163 1.19444L121.862 22.6426C121.714 23.3185 122.08 23.8333 122.662 23.8333H128.808C129.39 23.8333 129.91 23.3167 130.058 22.6426L131.032 17.7574C131.293 16.487 132.232 15.4926 133.189 15.4926C134.146 15.4926 134.709 16.4852 134.448 17.7574L133.474 22.6426C133.326 23.3185 133.693 23.8333 134.274 23.8333H140.421C141.002 23.8333 141.522 23.3167 141.67 22.6426L143.018 15.8907L143.015 15.887ZM111.99 18.787C111.762 20.0574 110.79 21.0519 109.833 21.0519C108.876 21.0519 108.348 20.0593 108.574 18.787L109.246 15.4907H112.662L112.101 18.2704L111.99 18.787ZM122.391 7.94445C122.728 6.1963 121.355 4.76667 119.305 4.76667H107.352C105.303 4.76667 103.366 6.1963 103.027 7.94445L102.616 9.92963C102.468 10.6056 102.835 11.1204 103.414 11.1204H109.117C109.698 11.1204 110.218 10.6037 110.366 9.92963L110.403 9.81111C110.631 8.54074 111.603 7.5463 112.56 7.5463C113.517 7.5463 114.045 8.53889 113.819 9.81111L113.147 13.1074H106.18C103.62 13.1074 101.163 14.8944 100.75 17.0796L100.039 20.6537C99.6668 22.4019 101.076 23.8315 103.125 23.8315H115.487C117.537 23.8315 119.473 22.4019 119.846 20.6537L122.39 7.94445H122.391ZM104.02 1.19074C104.136 0.514815 103.76 0 103.201 0H93.4163C91.8093 0 89.4154 1.03333 88.958 3.17778L84.9848 22.6407C84.8349 23.2759 85.244 23.8315 85.8032 23.8315H92.0925C92.6868 23.8315 93.2201 23.2759 93.3719 22.6407L95.9324 10.0889H100.091C100.65 10.0889 101.253 9.57222 101.37 8.89815L101.596 7.94445C101.713 7.26852 101.337 6.7537 100.778 6.7537H96.6193L96.8489 5.64074C97.0785 4.48889 97.9672 3.61481 99.0151 3.61481H102.475C103.035 3.61481 103.638 3.01852 103.755 2.34444L104.02 1.19259V1.19074ZM72.0229 12.5111V9.81111C72.0229 8.54074 72.7746 7.5463 73.7299 7.5463C74.6853 7.5463 75.437 8.53889 75.437 9.81111V12.5111H72.0211H72.0229ZM83.6333 18.8667C83.6333 18.1907 83.1889 17.6759 82.6095 17.6759H76.4627C75.8813 17.6759 75.4388 18.1926 75.4388 18.8667C75.4055 20.0981 74.6538 21.0519 73.7318 21.0519C72.8098 21.0519 72.0248 20.0593 72.0248 18.787V14.8944H79.9138C81.9633 14.8944 83.637 13.4648 83.637 11.7167V7.94259C83.637 6.19444 81.9633 4.76481 79.9138 4.76481H67.5517C65.5021 4.76481 63.8284 6.19444 63.8284 7.94259V20.6519C63.8284 22.4 65.5021 23.8296 67.5517 23.8296H79.9138C81.9633 23.8296 83.637 22.4 83.637 20.6519V18.8648L83.6333 18.8667ZM61.4012 11.5185C61.4012 10.8426 60.9568 10.3278 60.3773 10.3278H54.9137C54.3324 10.3278 53.8899 10.8444 53.8899 11.5185V18.8667C53.8566 20.0981 53.1049 21.0519 52.1829 21.0519C51.2609 21.0519 50.4758 20.0593 50.4758 18.787V8.14259H58.2611C58.8073 8.14259 59.285 7.58704 59.285 6.95185V5.99815C59.285 5.32222 58.8073 4.80741 58.2611 4.80741H50.4758V2.30556C50.4758 1.62963 50.0315 1.11296 49.452 1.11296H43.3052C42.7239 1.11296 42.2814 1.62963 42.2814 2.30556V20.6556C42.2814 22.4037 43.9551 23.8333 46.0046 23.8333H57.6835C59.733 23.8333 61.4067 22.4037 61.4067 20.6556V11.5204L61.4012 11.5185ZM40.5355 7.94445C40.5355 6.1963 38.8617 4.76667 36.8141 4.76667H32.8186C31.7948 4.76667 30.8728 5.12407 30.1896 5.67963L29.4046 4.76667H23.2578C22.6765 4.76667 22.234 5.28333 22.234 5.95741V22.6389C22.234 23.3148 22.6783 23.8296 23.2578 23.8296H29.4046C29.9859 23.8296 30.4284 23.313 30.4284 22.6389V9.81111C30.4284 8.54074 31.1801 7.5463 32.1355 7.5463C33.0908 7.5463 33.8425 8.53889 33.8425 9.81111V10.8444C33.8425 11.5204 34.2868 12.0352 34.8663 12.0352H39.5116C40.0578 12.0352 40.5355 11.5185 40.5355 10.8444V7.94445ZM11.6104 18.787C11.6104 20.0574 10.8587 21.0519 9.90336 21.0519C8.94802 21.0519 8.19633 20.0593 8.19633 18.787V15.4907H11.6104V18.787ZM19.8067 7.94445C19.8067 6.1963 18.133 4.76667 16.0835 4.76667H4.13242C2.08287 4.76667 0.444346 6.1963 0.444346 7.94445V9.92963C0.444346 10.6056 0.888692 11.1204 1.46819 11.1204H7.17063C7.75198 11.1204 8.19448 10.6037 8.19448 9.92963V9.81111C8.19448 8.54074 8.94616 7.5463 9.90151 7.5463C10.8569 7.5463 11.6085 8.53889 11.6085 9.81111V13.1074H4.64341C2.08287 13.1074 0 14.8944 0 17.0796V20.6537C0 22.4019 1.6737 23.8315 3.72325 23.8315H16.0853C18.1349 23.8315 19.8086 22.4019 19.8086 20.6537V7.94445H19.8067Z" fill="currentColor"/>
</svg>
