<svg width="14" height="14" viewBox="0 0 14 14" fill="none" xmlns="http://www.w3.org/2000/svg">
  <rect x="2.5" y="3.39941" width="1.1" height="1.1" fill="currentColor"/>
  <rect x="10.5" y="3.39941" width="1.1" height="1.1" fill="currentColor"/>
  <rect x="3.5" y="3.39941" width="1.1" height="1.1" fill="currentColor"/>
  <rect x="2.5" y="2.39941" width="1.1" height="1.1" fill="currentColor"/>
  <rect x="10.5" y="2.39941" width="1.1" height="1.1" fill="currentColor"/>
  <rect x="3.5" y="2.39941" width="1.1" height="1.1" fill="currentColor"/>
  <rect x="4.5" y="4.39941" width="1.1" height="1.1" fill="currentColor"/>
  <rect x="4.5" y="3.39941" width="1.1" height="1.1" fill="currentColor"/>
  <rect x="4.5" y="5.39941" width="1.1" height="1.1" fill="currentColor"/>
  <rect x="4.5" y="6.39941" width="1.1" height="1.1" fill="currentColor"/>
  <rect x="4.5" y="7.39941" width="1.1" height="1.1" fill="currentColor"/>
  <rect x="4.5" y="8.39941" width="1.1" height="1.1" fill="currentColor"/>
  <rect x="4.5" y="9.39941" width="1.1" height="1.1" fill="currentColor"/>
  <rect x="5.5" y="8.39941" width="1.1" height="1.1" fill="currentColor"/>
  <rect x="5.5" y="7.39941" width="1.1" height="1.1" fill="currentColor"/>
  <rect x="6.5" y="7.39941" width="1.1" height="1.1" fill="currentColor"/>
  <rect x="5.5" y="6.39941" width="1.1" height="1.1" fill="currentColor"/>
  <rect x="6.5" y="6.39941" width="1.1" height="1.1" fill="currentColor"/>
  <rect x="7.5" y="6.39941" width="1.1" height="1.1" fill="currentColor"/>
  <rect x="5.5" y="5.39941" width="1.1" height="1.1" fill="currentColor"/>
  <rect x="6.5" y="5.39941" width="1.1" height="1.1" fill="currentColor"/>
  <rect x="5.5" y="4.39941" width="1.1" height="1.1" fill="currentColor"/>
  <rect x="2.5" y="4.39941" width="1.1" height="1.1" fill="currentColor"/>
  <rect x="10.5" y="4.39941" width="1.1" height="1.1" fill="currentColor"/>
  <rect x="3.5" y="4.39941" width="1.1" height="1.1" fill="currentColor"/>
  <rect x="2.5" y="5.39941" width="1.1" height="1.1" fill="currentColor"/>
  <rect x="10.5" y="5.39941" width="1.1" height="1.1" fill="currentColor"/>
  <rect x="3.5" y="5.39941" width="1.1" height="1.1" fill="currentColor"/>
  <rect x="2.5" y="6.39941" width="1.1" height="1.1" fill="currentColor"/>
  <rect x="10.5" y="6.39941" width="1.1" height="1.1" fill="currentColor"/>
  <rect x="3.5" y="6.39941" width="1.1" height="1.1" fill="currentColor"/>
  <rect x="2.5" y="7.39941" width="1.1" height="1.1" fill="currentColor"/>
  <rect x="10.5" y="7.39941" width="1.1" height="1.1" fill="currentColor"/>
  <rect x="3.5" y="7.39941" width="1.1" height="1.1" fill="currentColor"/>
  <rect x="2.5" y="8.39941" width="1.1" height="1.1" fill="currentColor"/>
  <rect x="10.5" y="8.39941" width="1.1" height="1.1" fill="currentColor"/>
  <rect x="3.5" y="8.39941" width="1.1" height="1.1" fill="currentColor"/>
  <rect x="2.5" y="9.39941" width="1.1" height="1.1" fill="currentColor"/>
  <rect x="10.5" y="9.39941" width="1.1" height="1.1" fill="currentColor"/>
  <rect x="3.5" y="9.39941" width="1.1" height="1.1" fill="currentColor"/>
  <rect x="2.5" y="10.3994" width="1.1" height="1.1" fill="currentColor"/>
  <rect x="10.5" y="10.3994" width="1.1" height="1.1" fill="currentColor"/>
  <rect x="3.5" y="10.3994" width="1.1" height="1.1" fill="currentColor"/>
</svg>
