<svg width="14" height="14" viewBox="0 0 14 14" fill="none" xmlns="http://www.w3.org/2000/svg">
  <rect x="5" y="3.39941" width="1.1" height="1.1" fill="currentColor"/>
  <rect x="6" y="3.39941" width="1.1" height="1.1" fill="currentColor"/>
  <rect x="5" y="2.39941" width="1.1" height="1.1" fill="currentColor"/>
  <rect x="6" y="2.39941" width="1.1" height="1.1" fill="currentColor"/>
  <rect x="7" y="4.39941" width="1.1" height="1.1" fill="currentColor"/>
  <rect x="7" y="3.39941" width="1.1" height="1.1" fill="currentColor"/>
  <rect x="7" y="5.39941" width="1.1" height="1.1" fill="currentColor"/>
  <rect x="7" y="6.39941" width="1.1" height="1.1" fill="currentColor"/>
  <rect x="7" y="7.39941" width="1.1" height="1.1" fill="currentColor"/>
  <rect x="7" y="8.39941" width="1.1" height="1.1" fill="currentColor"/>
  <rect x="7" y="9.39941" width="1.1" height="1.1" fill="currentColor"/>
  <rect x="8" y="8.39941" width="1.1" height="1.1" fill="currentColor"/>
  <rect x="8" y="7.39941" width="1.1" height="1.1" fill="currentColor"/>
  <rect x="9" y="7.39941" width="1.1" height="1.1" fill="currentColor"/>
  <rect x="8" y="6.39941" width="1.1" height="1.1" fill="currentColor"/>
  <rect x="9" y="6.39941" width="1.1" height="1.1" fill="currentColor"/>
  <rect x="10" y="6.39941" width="1.1" height="1.1" fill="currentColor"/>
  <rect x="8" y="5.39941" width="1.1" height="1.1" fill="currentColor"/>
  <rect x="9" y="5.39941" width="1.1" height="1.1" fill="currentColor"/>
  <rect x="8" y="4.39941" width="1.1" height="1.1" fill="currentColor"/>
  <rect x="5" y="4.39941" width="1.1" height="1.1" fill="currentColor"/>
  <rect x="6" y="4.39941" width="1.1" height="1.1" fill="currentColor"/>
  <rect x="5" y="5.39941" width="1.1" height="1.1" fill="currentColor"/>
  <rect x="6" y="5.39941" width="1.1" height="1.1" fill="currentColor"/>
  <rect x="5" y="6.39941" width="1.1" height="1.1" fill="currentColor"/>
  <rect x="6" y="6.39941" width="1.1" height="1.1" fill="currentColor"/>
  <rect x="5" y="7.39941" width="1.1" height="1.1" fill="currentColor"/>
  <rect x="6" y="7.39941" width="1.1" height="1.1" fill="currentColor"/>
  <rect x="5" y="8.39941" width="1.1" height="1.1" fill="currentColor"/>
  <rect x="6" y="8.39941" width="1.1" height="1.1" fill="currentColor"/>
  <rect x="5" y="9.39941" width="1.1" height="1.1" fill="currentColor"/>
  <rect x="6" y="9.39941" width="1.1" height="1.1" fill="currentColor"/>
  <rect x="5" y="10.3994" width="1.1" height="1.1" fill="currentColor"/>
  <rect x="6" y="10.3994" width="1.1" height="1.1" fill="currentColor"/>
</svg>
