<svg width="9" height="9" viewBox="0 0 9 9" fill="none" xmlns="http://www.w3.org/2000/svg">
  <rect x="5.1543" y="7.72203" width="1.30992" height="1.30992" transform="rotate(180 5.1543 7.72203)" fill="currentColor"/>
  <rect x="5.1543" y="6.4398" width="1.30992" height="1.30992" transform="rotate(180 5.1543 6.4398)" fill="currentColor"/>
  <rect x="3.87891" y="5.1566" width="1.30992" height="1.30992" transform="rotate(180 3.87891 5.1566)" fill="currentColor"/>
  <rect x="2.5957" y="5.1566" width="1.30992" height="1.30992" transform="rotate(180 2.5957 5.1566)" fill="currentColor"/>
  <rect x="1.31055" y="5.1566" width="1.30992" height="1.30992" transform="rotate(180 1.31055 5.1566)" fill="currentColor"/>
  <rect x="6.42578" y="5.1566" width="1.30992" height="1.30992" transform="rotate(180 6.42578 5.1566)" fill="currentColor"/>
  <rect x="7.70898" y="5.1566" width="1.30992" height="1.30992" transform="rotate(180 7.70898 5.1566)" fill="currentColor"/>
  <rect x="8.99414" y="5.1566" width="1.30992" height="1.30992" transform="rotate(180 8.99414 5.1566)" fill="currentColor"/>
  <rect x="5.1543" y="3.87437" width="1.30992" height="1.30992" transform="rotate(180 5.1543 3.87437)" fill="currentColor"/>
  <rect x="5.1543" y="2.59214" width="1.30992" height="1.30992" transform="rotate(180 5.1543 2.59214)" fill="currentColor"/>
  <rect x="5.1543" y="1.30992" width="1.30992" height="1.30992" transform="rotate(180 5.1543 1.30992)" fill="currentColor"/>
  <rect x="5.1543" y="9.00425" width="1.30992" height="1.30992" transform="rotate(180 5.1543 9.00425)" fill="currentColor"/>
</svg>
