<svg width="14" height="14" viewBox="0 0 14 14" fill="none" xmlns="http://www.w3.org/2000/svg">
  <rect width="1.1" height="1.1" transform="matrix(-1 0 0 1 11.5996 3.39941)" fill="currentColor"/>
  <rect width="1.1" height="1.1" transform="matrix(-1 0 0 1 3.59961 3.39941)" fill="currentColor"/>
  <rect width="1.1" height="1.1" transform="matrix(-1 0 0 1 10.5996 3.39941)" fill="currentColor"/>
  <rect width="1.1" height="1.1" transform="matrix(-1 0 0 1 11.5996 2.39941)" fill="currentColor"/>
  <rect width="1.1" height="1.1" transform="matrix(-1 0 0 1 3.59961 2.39941)" fill="currentColor"/>
  <rect width="1.1" height="1.1" transform="matrix(-1 0 0 1 10.5996 2.39941)" fill="currentColor"/>
  <rect width="1.1" height="1.1" transform="matrix(-1 0 0 1 9.59961 4.39941)" fill="currentColor"/>
  <rect width="1.1" height="1.1" transform="matrix(-1 0 0 1 9.59961 3.39941)" fill="currentColor"/>
  <rect width="1.1" height="1.1" transform="matrix(-1 0 0 1 9.59961 5.39941)" fill="currentColor"/>
  <rect width="1.1" height="1.1" transform="matrix(-1 0 0 1 9.59961 6.39941)" fill="currentColor"/>
  <rect width="1.1" height="1.1" transform="matrix(-1 0 0 1 9.59961 7.39941)" fill="currentColor"/>
  <rect width="1.1" height="1.1" transform="matrix(-1 0 0 1 9.59961 8.39941)" fill="currentColor"/>
  <rect width="1.1" height="1.1" transform="matrix(-1 0 0 1 9.59961 9.39941)" fill="currentColor"/>
  <rect width="1.1" height="1.1" transform="matrix(-1 0 0 1 8.59961 8.39941)" fill="currentColor"/>
  <rect width="1.1" height="1.1" transform="matrix(-1 0 0 1 8.59961 7.39941)" fill="currentColor"/>
  <rect width="1.1" height="1.1" transform="matrix(-1 0 0 1 7.59961 7.39941)" fill="currentColor"/>
  <rect width="1.1" height="1.1" transform="matrix(-1 0 0 1 8.59961 6.39941)" fill="currentColor"/>
  <rect width="1.1" height="1.1" transform="matrix(-1 0 0 1 7.59961 6.39941)" fill="currentColor"/>
  <rect width="1.1" height="1.1" transform="matrix(-1 0 0 1 6.59961 6.39941)" fill="currentColor"/>
  <rect width="1.1" height="1.1" transform="matrix(-1 0 0 1 8.59961 5.39941)" fill="currentColor"/>
  <rect width="1.1" height="1.1" transform="matrix(-1 0 0 1 7.59961 5.39941)" fill="currentColor"/>
  <rect width="1.1" height="1.1" transform="matrix(-1 0 0 1 8.59961 4.39941)" fill="currentColor"/>
  <rect width="1.1" height="1.1" transform="matrix(-1 0 0 1 11.5996 4.39941)" fill="currentColor"/>
  <rect width="1.1" height="1.1" transform="matrix(-1 0 0 1 3.59961 4.39941)" fill="currentColor"/>
  <rect width="1.1" height="1.1" transform="matrix(-1 0 0 1 10.5996 4.39941)" fill="currentColor"/>
  <rect width="1.1" height="1.1" transform="matrix(-1 0 0 1 11.5996 5.39941)" fill="currentColor"/>
  <rect width="1.1" height="1.1" transform="matrix(-1 0 0 1 3.59961 5.39941)" fill="currentColor"/>
  <rect width="1.1" height="1.1" transform="matrix(-1 0 0 1 10.5996 5.39941)" fill="currentColor"/>
  <rect width="1.1" height="1.1" transform="matrix(-1 0 0 1 11.5996 6.39941)" fill="currentColor"/>
  <rect width="1.1" height="1.1" transform="matrix(-1 0 0 1 3.59961 6.39941)" fill="currentColor"/>
  <rect width="1.1" height="1.1" transform="matrix(-1 0 0 1 10.5996 6.39941)" fill="currentColor"/>
  <rect width="1.1" height="1.1" transform="matrix(-1 0 0 1 11.5996 7.39941)" fill="currentColor"/>
  <rect width="1.1" height="1.1" transform="matrix(-1 0 0 1 3.59961 7.39941)" fill="currentColor"/>
  <rect width="1.1" height="1.1" transform="matrix(-1 0 0 1 10.5996 7.39941)" fill="currentColor"/>
  <rect width="1.1" height="1.1" transform="matrix(-1 0 0 1 11.5996 8.39941)" fill="currentColor"/>
  <rect width="1.1" height="1.1" transform="matrix(-1 0 0 1 3.59961 8.39941)" fill="currentColor"/>
  <rect width="1.1" height="1.1" transform="matrix(-1 0 0 1 10.5996 8.39941)" fill="currentColor"/>
  <rect width="1.1" height="1.1" transform="matrix(-1 0 0 1 11.5996 9.39941)" fill="currentColor"/>
  <rect width="1.1" height="1.1" transform="matrix(-1 0 0 1 3.59961 9.39941)" fill="currentColor"/>
  <rect width="1.1" height="1.1" transform="matrix(-1 0 0 1 10.5996 9.39941)" fill="currentColor"/>
  <rect width="1.1" height="1.1" transform="matrix(-1 0 0 1 11.5996 10.3994)" fill="currentColor"/>
  <rect width="1.1" height="1.1" transform="matrix(-1 0 0 1 3.59961 10.3994)" fill="currentColor"/>
  <rect width="1.1" height="1.1" transform="matrix(-1 0 0 1 10.5996 10.3994)" fill="currentColor"/>
</svg>
