<svg width="14" height="14" viewBox="0 0 14 14" fill="none" xmlns="http://www.w3.org/2000/svg">
<rect x="9" y="3" width="1.1" height="1.1" fill="currentColor"/>
<rect x="8" y="3" width="1.1" height="1.1" fill="currentColor"/>
<rect x="7" y="3" width="1.1" height="1.1" fill="currentColor"/>
<rect x="9" y="2" width="1.1" height="1.1" fill="currentColor"/>
<rect x="8" y="2" width="1.1" height="1.1" fill="currentColor"/>
<rect x="9" y="4" width="1.1" height="1.1" fill="currentColor"/>
<rect x="8" y="4" width="1.1" height="1.1" fill="currentColor"/>
<rect x="7" y="4" width="1.1" height="1.1" fill="currentColor"/>
<rect x="6" y="4" width="1.1" height="1.1" fill="currentColor"/>
<rect x="9" y="5" width="1.1" height="1.1" fill="currentColor"/>
<rect x="8" y="5" width="1.1" height="1.1" fill="currentColor"/>
<rect x="7" y="5" width="1.1" height="1.1" fill="currentColor"/>
<rect x="6" y="5" width="1.1" height="1.1" fill="currentColor"/>
<rect x="5" y="5" width="1.1" height="1.1" fill="currentColor"/>
<rect x="4" y="5" width="1.1" height="1.1" fill="currentColor"/>
<rect x="3" y="5" width="1.1" height="1.1" fill="currentColor"/>
<rect x="9" y="6" width="1.1" height="1.1" fill="currentColor"/>
<rect x="8" y="6" width="1.1" height="1.1" fill="currentColor"/>
<rect x="7" y="6" width="1.1" height="1.1" fill="currentColor"/>
<rect x="6" y="6" width="1.1" height="1.1" fill="currentColor"/>
<rect x="5" y="6" width="1.1" height="1.1" fill="currentColor"/>
<rect x="4" y="6" width="1.1" height="1.1" fill="currentColor"/>
<rect x="3" y="6" width="1.1" height="1.1" fill="currentColor"/>
<rect x="9" y="7" width="1.1" height="1.1" fill="currentColor"/>
<rect x="8" y="7" width="1.1" height="1.1" fill="currentColor"/>
<rect x="7" y="7" width="1.1" height="1.1" fill="currentColor"/>
<rect x="6" y="7" width="1.1" height="1.1" fill="currentColor"/>
<rect x="5" y="7" width="1.1" height="1.1" fill="currentColor"/>
<rect x="4" y="7" width="1.1" height="1.1" fill="currentColor"/>
<rect x="3" y="7" width="1.1" height="1.1" fill="currentColor"/>
<rect x="9" y="8" width="1.1" height="1.1" fill="currentColor"/>
<rect x="8" y="8" width="1.1" height="1.1" fill="currentColor"/>
<rect x="7" y="8" width="1.1" height="1.1" fill="currentColor"/>
<rect x="6" y="8" width="1.1" height="1.1" fill="currentColor"/>
<rect x="5" y="8" width="1.1" height="1.1" fill="currentColor"/>
<rect x="4" y="8" width="1.1" height="1.1" fill="currentColor"/>
<rect x="3" y="8" width="1.1" height="1.1" fill="currentColor"/>
<rect x="9" y="9" width="1.1" height="1.1" fill="currentColor"/>
<rect x="8" y="9" width="1.1" height="1.1" fill="currentColor"/>
<rect x="7" y="9" width="1.1" height="1.1" fill="currentColor"/>
<rect x="6" y="9" width="1.1" height="1.1" fill="currentColor"/>
<rect x="9" y="10" width="1.1" height="1.1" fill="currentColor"/>
<rect x="8" y="10" width="1.1" height="1.1" fill="currentColor"/>
<rect x="7" y="10" width="1.1" height="1.1" fill="currentColor"/>
<rect x="9" y="11" width="1.1" height="1.1" fill="currentColor"/>
<rect x="8" y="11" width="1.1" height="1.1" fill="currentColor"/>
</svg>
